<svg id="图层_1" data-name="图层 1" xmlns="http://www.w3.org/2000/svg" viewBox="0 0 949 256"><title>画板 1</title><rect id="canvas_background" data-name="canvas background" x="-1" y="-1" width="582" height="402" fill="none"/><g id="svg_15" data-name="svg 15"><path id="svg_10" data-name="svg 10" d="M307.61,100a24.22,24.22,0,0,1,4.73,18.42.3.3,0,0,1,0,.19,123.08,123.08,0,0,1-30.85,65.3,111.81,111.81,0,0,1-29.8,23.15,103.31,103.31,0,0,1-35,11.22,20.74,20.74,0,0,1-10.22,10.57l-58.77,27a7.14,7.14,0,0,1-4.94,0,6.81,6.81,0,0,1-3.51-3.79,53.11,53.11,0,0,1-1.25-34.52c-24.14-4.24-46.29-17.13-63.09-36.91-19-22.28-29.39-51.31-29.39-81.74V59.42A21.21,21.21,0,0,1,46,54.68H34.67c-18.36,0-33.28-16.26-33.28-36.27V8.72a6.76,6.76,0,0,1,6.47-7H27.27c14.26,0,27.23,7.92,34.92,20.24C69.87,9.62,82.84,1.67,97.1,1.67h19.41a6.76,6.76,0,0,1,6.47,7v9.7c0,20-14.92,36.27-33.28,36.27H79.43c.1.42.21.83.28,1.25,3.62,20.84,20.41,36,40,36H291.54A20.47,20.47,0,0,1,307.61,100Z" fill="#633"/><path id="svg_11" data-name="svg 11" d="M297.77,109.18a9.09,9.09,0,0,1,1.32,2.35c-46.57,9-83.74,47.94-93.52,98.8,0,.08,0,.15,0,.27a7.45,7.45,0,0,1-4.1,5.34l-52.24,24c-3-16.07,4.76-32.78,19.16-39.41a7.26,7.26,0,0,0,3.44-9.21,6.26,6.26,0,0,0-8.45-3.75,45.9,45.9,0,0,0-19.23,16.79c-22.88-3-44-14.67-59.78-33.2-16.76-19.67-26-45.29-26-72.16V59.42a4.89,4.89,0,0,1,1.25-3.33,4.14,4.14,0,0,1,3.1-1.4A4.48,4.48,0,0,1,67,58.59C71.75,86.1,93.9,106,119.64,106H291.51a7.84,7.84,0,0,1,6.26,3.15Z" fill="#1296db"/><path id="svg_12" data-name="svg 12" d="M297.63,126.16A107.6,107.6,0,0,1,272.31,174a94.93,94.93,0,0,1-51.82,29.45C231.41,164.36,261,134.76,297.63,126.16Z" fill="#fff"/><path id="svg_13" data-name="svg 13" d="M288,48.58a6.49,6.49,0,1,1-12.94,0c0-7.28-5.43-13.19-12.1-13.19s-12.07,5.91-12.07,13.15V72.84a6.49,6.49,0,1,1-12.94,0s0-24.86,0-25.16h-.07c-.42-6.86-5.67-12.28-12.07-12.28-6.68,0-12.1,5.91-12.1,13.19a6.49,6.49,0,1,1-12.94,0c0-15,11.23-27.25,25-27.25a24.19,24.19,0,0,1,18.57,9,24.05,24.05,0,0,1,18.54-9C276.8,21.33,288,33.58,288,48.58ZM211.9,121.31c4.24,0,7.69,3.75,7.69,8.38s-3.44,8.38-7.69,8.38-7.69-3.75-7.69-8.38S207.66,121.31,211.9,121.31Zm-81.8,45.17a7.29,7.29,0,0,1,3.51,9.21,6.49,6.49,0,0,1-6,4.36,6.3,6.3,0,0,1-2.47-.53,79.43,79.43,0,0,1-28.07-21.3,87.13,87.13,0,0,1-12.76-20,7.4,7.4,0,0,1,2.85-9.47,6.26,6.26,0,0,1,8.69,3.11,73.45,73.45,0,0,0,10.71,16.75,66.87,66.87,0,0,0,23.51,17.85Z" fill="#633"/><path id="svg_14" data-name="svg 14" d="M110,15.76v2.65c0,12.24-9.11,22.17-20.34,22.17H68.55c3-14.4,14.92-24.82,28.52-24.82ZM55.79,40.59H34.64c-11.23,0-20.34-9.93-20.34-22.17V15.76H27.23C40.87,15.76,52.83,26.19,55.79,40.59Z" fill="#1296db"/></g><text transform="translate(327.61 164.79) scale(0.91 1)" font-size="155" font-family="PoorRichard-Regular, Poor Richard" style="isolation:isolate">xdren&apos;s blog</text></svg>