<svg id="图层_1" data-name="图层 1" xmlns="http://www.w3.org/2000/svg" viewBox="0 0 948.67 254.75"><title>logo-1</title><g id="svg_8" data-name="svg 8"><path id="svg_1" data-name="svg 1" d="M309.4,98.4a23.89,23.89,0,0,1,4.8,18.4v.2A122.11,122.11,0,0,1,283,182.3a113.28,113.28,0,0,1-30.1,23.2,104.64,104.64,0,0,1-35.4,11.2,20.67,20.67,0,0,1-10.4,10.6l-59.4,27a7.17,7.17,0,0,1-5,0,7.06,7.06,0,0,1-3.6-3.8,53,53,0,0,1-1.3-34.5c-24.4-4.2-46.8-17.1-63.7-36.9C55,156.7,44.5,127.7,44.5,97.2V57.8a18.35,18.35,0,0,1,.6-4.7H33.6C15.1,53,0,36.8,0,16.8V7.1A6.88,6.88,0,0,1,6.5,0H26.1C40.5,0,53.7,7.9,61.4,20.2,69.2,7.9,82.3,0,96.7,0h19.6a6.79,6.79,0,0,1,6.5,7v9.7c0,20-15.1,36.3-33.6,36.3H78.8c.1.4.2.8.3,1.3,3.7,20.9,20.6,36,40.4,36H293.1A20.51,20.51,0,0,1,309.4,98.4Z" transform="translate(0)" fill="#633"/><path id="svg_2" data-name="svg 2" d="M299.4,107.5a7.55,7.55,0,0,1,1.3,2.3c-47,9-84.6,47.9-94.5,98.8v.3a7.65,7.65,0,0,1-4.1,5.3l-52.8,24c-3-16.1,4.8-32.8,19.4-39.4a7.26,7.26,0,0,0,3.5-9.2,6.28,6.28,0,0,0-8.1-3.9c-.2.1-.3.1-.5.2a45.79,45.79,0,0,0-19.4,16.8c-23.1-3-44.4-14.7-60.4-33.2-17-19.7-26.3-45.3-26.3-72.2V57.8a4.6,4.6,0,0,1,1.3-3.3,4.1,4.1,0,0,1,3.1-1.4A4.5,4.5,0,0,1,66.2,57c4.9,27.5,27.3,47.5,53.3,47.5H293.1a7.41,7.41,0,0,1,6.3,3Z" transform="translate(0)" fill="#1296db"/><path id="svg_3" data-name="svg 3" d="M299.3,124.5a107.06,107.06,0,0,1-25.6,47.8,95.44,95.44,0,0,1-52.4,29.4C232.4,162.7,262.2,133.1,299.3,124.5Z" transform="translate(0)" fill="#fff"/><path id="svg_4" data-name="svg 4" d="M289.6,46.9a6.57,6.57,0,0,1-13.1.9v-.9c0-7.3-5.5-13.2-12.2-13.2s-12.2,5.9-12.2,13.1V71.1A6.57,6.57,0,0,1,239,72V45.9h-.1c-.4-6.9-5.7-12.3-12.2-12.3-6.8,0-12.2,5.9-12.2,13.2a6.65,6.65,0,0,1-6.1,7,6.58,6.58,0,0,1-7-6.1v-.9c0-15,11.4-27.3,25.3-27.3a24.79,24.79,0,0,1,18.8,9,24.74,24.74,0,0,1,18.7-9c14,.2,25.3,12.4,25.4,27.4Zm-76.9,72.7c4.3,0,7.8,3.8,7.8,8.4s-3.5,8.4-7.8,8.4-7.8-3.8-7.8-8.4S208.4,119.6,212.7,119.6ZM130,164.8a7.31,7.31,0,0,1,3.6,9.2,6.57,6.57,0,0,1-6,4.4,7,7,0,0,1-2.5-.5,80.19,80.19,0,0,1-28.3-21.3,87.69,87.69,0,0,1-12.9-20,7.41,7.41,0,0,1,2.9-9.5,6.44,6.44,0,0,1,8.6,2.7c.1.1.1.3.2.4A76.37,76.37,0,0,0,106.4,147,66.72,66.72,0,0,0,130,164.8Z" transform="translate(0)" fill="#633"/><path id="svg_5" data-name="svg 5" d="M109.8,14.1v2.7C109.8,29,100.6,39,89.3,39H67.8c3-14.4,15.1-24.8,28.8-24.8ZM55,38.9H33.6C22.2,38.9,13,29,13,16.7V14H26.1C39.9,14.1,52,24.5,55,38.9Z" transform="translate(0)" fill="#1296db"/><text transform="translate(307.75 178.38) scale(0.65 1)" font-size="170" font-family="BookmanOldStyle-Italic, Bookman Old Style" font-style="italic" style="isolation:isolate">xdren&apos;s blog</text></g></svg>